<svg width="1499" height="259" viewBox="0 0 1499 259" fill="none" xmlns="http://www.w3.org/2000/svg">
<g clip-path="url(#clip0_2363_202)">
<mask id="mask0_2363_202" style="mask-type:luminance" maskUnits="userSpaceOnUse" x="0" y="27" width="1583" height="233">
<path d="M1583 27.1875H0V259.178H1583V27.1875Z" fill="white"/>
</mask>
<g mask="url(#mask0_2363_202)">
<path d="M84.3838 88.7813C84.3838 72.4456 90.8731 56.779 102.424 45.2279C113.975 33.6768 129.642 27.1875 145.977 27.1875H259.298C259.298 43.522 252.81 59.1876 241.26 70.7385C229.711 82.2893 214.046 88.7795 197.712 88.7813H84.3838ZM84.3838 259.179C84.3829 251.09 85.9754 243.08 89.0705 235.607C92.1656 228.134 96.7025 221.343 102.422 215.624C108.142 209.904 114.932 205.367 122.406 202.272C129.879 199.177 137.889 197.584 145.977 197.585H259.298C259.299 205.673 257.707 213.683 254.612 221.156C251.518 228.628 246.981 235.419 241.262 241.138C235.544 246.858 228.754 251.395 221.281 254.49C213.809 257.586 205.8 259.179 197.712 259.179H84.3838ZM39.125 177.061C39.125 160.725 45.6143 145.059 57.1654 133.507C68.7164 121.956 84.383 115.467 100.719 115.467H214.04C214.04 131.802 207.551 147.467 196.002 159.018C184.452 170.569 168.787 177.059 152.453 177.061H39.125Z" fill="#FD8704"/>
<path opacity="0.5" d="M0 177.062C0 160.726 6.48932 145.06 18.0404 133.509C29.5914 121.958 45.258 115.469 61.5937 115.469H214.012C214.012 131.803 207.524 147.468 195.974 159.019C184.425 170.57 168.76 177.06 152.425 177.062H0Z" fill="#FD8704"/>
</g>
<path d="M1468.51 65.9327L1448.56 16H1459.62L1472.04 48.9769L1484.39 16H1495.45L1475.56 65.9327H1468.51ZM1444.7 65.9327V16H1457.25V65.9327H1444.7ZM1486.76 65.9327V16H1499.38V65.9327H1486.76ZM1408.2 65.9327V20.3464H1420.81V65.9327H1408.2ZM1393 26.385V16H1436.01V26.385H1393Z" fill="white"/>
<path d="M284.455 200V68.2084H336.45C346.446 68.2084 354.962 70.1175 361.998 73.9356C369.034 77.7109 374.396 82.9663 378.086 89.7017C381.818 96.3943 383.684 104.116 383.684 112.868C383.684 121.62 381.797 129.342 378.021 136.035C374.246 142.727 368.776 147.94 361.612 151.672C354.49 155.404 345.867 157.271 335.743 157.271H302.602V134.941H331.238C336.601 134.941 341.019 134.018 344.494 132.174C348.012 130.286 350.629 127.69 352.345 124.387C354.104 121.041 354.984 117.201 354.984 112.868C354.984 108.492 354.104 104.674 352.345 101.414C350.629 98.1103 348.012 95.5577 344.494 93.7559C340.977 91.9111 336.515 90.9888 331.109 90.9888H312.319V200H284.455ZM401.268 200V101.156H427.846V118.402H428.875C430.677 112.268 433.701 107.634 437.949 104.503C442.196 101.328 447.087 99.7405 452.621 99.7405C453.994 99.7405 455.474 99.8263 457.061 99.9979C458.648 100.17 460.043 100.406 461.244 100.706V125.031C459.957 124.645 458.176 124.301 455.903 124.001C453.629 123.701 451.548 123.551 449.661 123.551C445.628 123.551 442.024 124.43 438.85 126.189C435.718 127.905 433.23 130.307 431.385 133.396C429.583 136.485 428.682 140.046 428.682 144.079V200H401.268ZM475.417 200V101.156H502.831V200H475.417ZM489.188 88.4147C485.113 88.4147 481.616 87.0633 478.699 84.3606C475.825 81.6149 474.388 78.333 474.388 74.5148C474.388 70.7395 475.825 67.5005 478.699 64.7978C481.616 62.0521 485.113 60.6793 489.188 60.6793C493.264 60.6793 496.739 62.0521 499.613 64.7978C502.531 67.5005 503.989 70.7395 503.989 74.5148C503.989 78.333 502.531 81.6149 499.613 84.3606C496.739 87.0633 493.264 88.4147 489.188 88.4147ZM524.791 200V101.156H550.918V118.596H552.076C554.135 112.804 557.567 108.235 562.372 104.889C567.177 101.542 572.926 99.8693 579.618 99.8693C586.397 99.8693 592.167 101.564 596.929 104.953C601.691 108.299 604.865 112.847 606.453 118.596H607.482C609.499 112.933 613.145 108.407 618.422 105.017C623.742 101.585 630.027 99.8693 637.277 99.8693C646.501 99.8693 653.987 102.808 659.736 108.685C665.527 114.52 668.423 122.8 668.423 133.525V200H641.074V138.931C641.074 133.439 639.615 129.321 636.698 126.575C633.781 123.829 630.134 122.457 625.758 122.457C620.782 122.457 616.899 124.044 614.111 127.219C611.322 130.35 609.928 134.49 609.928 139.638V200H583.351V138.351C583.351 133.504 581.956 129.642 579.168 126.768C576.422 123.894 572.797 122.457 568.292 122.457C565.246 122.457 562.501 123.229 560.055 124.773C557.653 126.275 555.744 128.398 554.328 131.144C552.912 133.847 552.205 137.021 552.205 140.668V200H524.791ZM735.123 201.931C724.956 201.931 716.204 199.871 708.868 195.753C701.575 191.591 695.955 185.714 692.008 178.121C688.061 170.484 686.088 161.454 686.088 151.029C686.088 140.861 688.061 131.938 692.008 124.258C695.955 116.579 701.51 110.594 708.675 106.304C715.882 102.014 724.334 99.8693 734.029 99.8693C740.55 99.8693 746.621 100.92 752.241 103.022C757.904 105.082 762.837 108.192 767.042 112.353C771.289 116.515 774.592 121.749 776.952 128.055C779.311 134.319 780.491 141.655 780.491 150.063V157.592H697.027V140.604H754.686C754.686 136.657 753.828 133.16 752.112 130.114C750.396 127.068 748.015 124.687 744.969 122.971C741.966 121.212 738.47 120.333 734.48 120.333C730.318 120.333 726.629 121.298 723.411 123.229C720.237 125.116 717.748 127.669 715.947 130.887C714.145 134.061 713.222 137.601 713.18 141.505V157.657C713.18 162.547 714.08 166.773 715.882 170.334C717.727 173.895 720.323 176.64 723.669 178.571C727.015 180.502 730.983 181.467 735.574 181.467C738.62 181.467 741.408 181.038 743.939 180.18C746.471 179.322 748.637 178.035 750.439 176.319C752.241 174.603 753.614 172.501 754.557 170.012L779.912 171.685C778.625 177.777 775.986 183.097 771.997 187.645C768.05 192.149 762.945 195.667 756.681 198.198C750.46 200.686 743.275 201.931 735.123 201.931ZM821.612 200H791.753L837.249 68.2084H873.157L918.589 200H888.73L855.718 98.3248H854.688L821.612 200ZM819.745 148.197H890.275V169.948H819.745V148.197ZM997.323 157.914V101.156H1024.74V200H998.417V182.046H997.387C995.157 187.838 991.446 192.492 986.255 196.01C981.106 199.528 974.822 201.287 967.4 201.287C960.793 201.287 954.98 199.785 949.96 196.782C944.941 193.779 941.016 189.511 938.184 183.977C935.396 178.442 933.98 171.814 933.937 164.092V101.156H961.351V159.201C961.394 165.036 962.959 169.648 966.048 173.037C969.137 176.426 973.277 178.121 978.468 178.121C981.771 178.121 984.86 177.37 987.735 175.868C990.609 174.324 992.926 172.05 994.685 169.047C996.486 166.044 997.366 162.333 997.323 157.914ZM1046.66 200V101.156H1073.24V118.402H1074.27C1076.07 112.268 1079.1 107.634 1083.34 104.503C1087.59 101.328 1092.48 99.7405 1098.02 99.7405C1099.39 99.7405 1100.87 99.8263 1102.46 99.9979C1104.04 100.17 1105.44 100.406 1106.64 100.706V125.031C1105.35 124.645 1103.57 124.301 1101.3 124.001C1099.03 123.701 1096.94 123.551 1095.06 123.551C1091.02 123.551 1087.42 124.43 1084.25 126.189C1081.11 127.905 1078.63 130.307 1076.78 133.396C1074.98 136.485 1074.08 140.046 1074.08 144.079V200H1046.66ZM1160.87 201.931C1150.88 201.931 1142.23 199.807 1134.94 195.56C1127.69 191.27 1122.09 185.306 1118.14 177.67C1114.2 169.991 1112.22 161.089 1112.22 150.964C1112.22 140.754 1114.2 131.83 1118.14 124.194C1122.09 116.515 1127.69 110.552 1134.94 106.304C1142.23 102.014 1150.88 99.8693 1160.87 99.8693C1170.87 99.8693 1179.49 102.014 1186.74 106.304C1194.03 110.552 1199.65 116.515 1203.6 124.194C1207.55 131.83 1209.52 140.754 1209.52 150.964C1209.52 161.089 1207.55 169.991 1203.6 177.67C1199.65 185.306 1194.03 191.27 1186.74 195.56C1179.49 199.807 1170.87 201.931 1160.87 201.931ZM1161 180.695C1165.55 180.695 1169.34 179.408 1172.39 176.834C1175.44 174.217 1177.73 170.656 1179.28 166.151C1180.86 161.647 1181.66 156.52 1181.66 150.771C1181.66 145.022 1180.86 139.896 1179.28 135.391C1177.73 130.887 1175.44 127.326 1172.39 124.709C1169.34 122.092 1165.55 120.783 1161 120.783C1156.41 120.783 1152.55 122.092 1149.42 124.709C1146.33 127.326 1143.99 130.887 1142.4 135.391C1140.86 139.896 1140.09 145.022 1140.09 150.771C1140.09 156.52 1140.86 161.647 1142.4 166.151C1143.99 170.656 1146.33 174.217 1149.42 176.834C1152.55 179.408 1156.41 180.695 1161 180.695ZM1227.35 200V101.156H1253.92V118.402H1254.95C1256.76 112.268 1259.78 107.634 1264.03 104.503C1268.27 101.328 1273.17 99.7405 1278.7 99.7405C1280.07 99.7405 1281.55 99.8263 1283.14 99.9979C1284.73 100.17 1286.12 100.406 1287.32 100.706V125.031C1286.04 124.645 1284.26 124.301 1281.98 124.001C1279.71 123.701 1277.63 123.551 1275.74 123.551C1271.71 123.551 1268.1 124.43 1264.93 126.189C1261.8 127.905 1259.31 130.307 1257.46 133.396C1255.66 136.485 1254.76 140.046 1254.76 144.079V200H1227.35ZM1326.85 201.866C1320.54 201.866 1314.92 200.772 1309.99 198.584C1305.06 196.353 1301.15 193.072 1298.28 188.739C1295.45 184.363 1294.03 178.914 1294.03 172.393C1294.03 166.902 1295.04 162.29 1297.06 158.558C1299.07 154.825 1301.82 151.822 1305.29 149.549C1308.77 147.275 1312.71 145.559 1317.13 144.4C1321.6 143.242 1326.27 142.427 1331.16 141.955C1336.91 141.354 1341.54 140.797 1345.06 140.282C1348.58 139.724 1351.13 138.909 1352.72 137.837C1354.31 136.764 1355.1 135.177 1355.1 133.075V132.688C1355.1 128.613 1353.81 125.46 1351.24 123.229C1348.71 120.998 1345.1 119.883 1340.43 119.883C1335.49 119.883 1331.57 120.977 1328.65 123.164C1325.73 125.309 1323.8 128.012 1322.86 131.273L1297.51 129.213C1298.79 123.207 1301.32 118.016 1305.1 113.64C1308.87 109.222 1313.74 105.832 1319.71 103.473C1325.71 101.07 1332.66 99.8693 1340.56 99.8693C1346.05 99.8693 1351.3 100.513 1356.32 101.8C1361.39 103.087 1365.87 105.082 1369.77 107.784C1373.72 110.487 1376.83 113.962 1379.1 118.209C1381.38 122.414 1382.51 127.455 1382.51 133.332V200H1356.52V186.293H1355.74C1354.16 189.382 1352.03 192.106 1349.37 194.466C1346.71 196.782 1343.52 198.606 1339.78 199.936C1336.05 201.223 1331.74 201.866 1326.85 201.866ZM1334.7 182.947C1338.73 182.947 1342.29 182.153 1345.38 180.566C1348.47 178.936 1350.9 176.748 1352.66 174.002C1354.41 171.256 1355.29 168.146 1355.29 164.671V154.182C1354.44 154.74 1353.26 155.254 1351.75 155.726C1350.3 156.155 1348.64 156.563 1346.8 156.949C1344.95 157.292 1343.11 157.614 1341.27 157.914C1339.42 158.172 1337.75 158.408 1336.25 158.622C1333.03 159.094 1330.22 159.845 1327.82 160.874C1325.41 161.904 1323.55 163.298 1322.22 165.057C1320.89 166.773 1320.22 168.918 1320.22 171.492C1320.22 175.225 1321.57 178.078 1324.28 180.051C1327.02 181.982 1330.5 182.947 1334.7 182.947Z" fill="#F6890B"/>
</g>
<defs>
<clipPath id="clip0_2363_202">
<rect width="1499" height="259" fill="white"/>
</clipPath>
</defs>
</svg>
