<svg version="1.2" xmlns="http://www.w3.org/2000/svg" viewBox="0 0 948 204" width="948" height="204">
	<title>logo</title>
	<style>
		.s0 { fill: #ffffff } 
		.s1 { fill: #00d0e0 } 
	</style>
	<g>
		<g id="_Слой_1">
			<g>
				<g>
					<path class="s0" d="m11.6 67.8h15.8l45.3 54.1v-54.1h15.1v73.1h-15.8l-45.3-54.1v54.1h-15.1z"/>
					<path class="s0" d="m169.8 67.8v13h-32.8c-3.3 0-6.3 0.7-8.8 2-2.5 1.3-4.6 3.1-6.3 5.3-1.7 2.2-2.9 4.7-3.8 7.6-0.8 2.9-1.3 5.7-1.3 8.7 0 3 0.4 5.8 1.3 8.6 0.8 2.8 2.1 5.3 3.7 7.6 1.6 2.2 3.7 4 6.1 5.4 2.4 1.4 5.3 2 8.6 2h33.2v13h-33.3c-5.8-0.2-10.9-1.4-15.2-3.5-4.4-2.1-8.1-4.9-11.1-8.3-3-3.4-5.3-7.3-6.8-11.5-1.5-4.3-2.3-8.7-2.3-13.2 0-4.5 0.8-8.8 2.3-13.2 1.5-4.3 3.8-8.2 6.8-11.6 3-3.4 6.7-6.2 11.1-8.3 4.4-2.1 9.5-3.3 15.2-3.5h33.3zm-38.5 43v-13h30.5v13z"/>
					<path class="s0" d="m255.7 67.8v13h-31.2v60.2h-15.1v-60.2h-29.2v-13h75.6z"/>
					<path class="s0" d="m338.8 140.9h-15.1v-30.1h-41.5v30.1h-15.1v-73.1h15.1v30.1h41.5v-30.1h15.1z"/>
					<path class="s0" d="m420.7 67.8v13h-32.8c-3.3 0-6.3 0.7-8.8 2-2.5 1.3-4.6 3.1-6.3 5.3-1.7 2.2-2.9 4.7-3.8 7.6-0.8 2.9-1.3 5.7-1.3 8.7 0 3 0.4 5.8 1.3 8.6 0.8 2.8 2.1 5.3 3.7 7.6 1.6 2.2 3.7 4 6.1 5.4 2.4 1.4 5.3 2 8.6 2h33.2v13h-33.3c-5.8-0.2-10.9-1.4-15.2-3.5-4.4-2.1-8.1-4.9-11.1-8.3-3-3.4-5.3-7.3-6.8-11.5-1.5-4.3-2.3-8.7-2.3-13.2 0-4.5 0.8-8.8 2.3-13.2 1.5-4.3 3.8-8.2 6.8-11.6 3-3.4 6.7-6.2 11.1-8.3 4.4-2.1 9.5-3.3 15.2-3.5h33.3zm-38.5 43v-13h30.5v13z"/>
					<path class="s0" d="m436.7 67.8h42.1c3.6 0 6.8 0.8 9.7 2.1 2.8 1.3 5.2 3 7.1 5.1 1.9 2.1 3.3 4.5 4.3 7.1 1 2.6 1.5 5.4 1.5 8.1 0 2.7-0.3 4.4-0.9 6.6-0.6 2.2-1.6 4.2-2.8 6.1-1.3 1.9-2.8 3.6-4.7 5.2-1.9 1.6-4.1 2.8-6.6 3.7h-0.2c1.9 2.9 3.8 5.7 5.7 8.5 1.9 2.7 4 5.4 6.2 8 5.8 7.3 12.2 14.2 19.3 20.8 7.1 6.5 14.6 12.3 22.7 17.2 8.1 4.9 16.6 8.9 25.6 11.8 9 2.9 18.3 4.3 28 4.3 9.7 0 12.4-0.8 18.2-2.5 5.8-1.6 11.3-3.9 16.5-6.8 5.2-2.9 10-6.4 14.6-10.4 4.5-4 8.7-8.4 12.4-13.1l10.4 10c-4.5 5.6-9.3 10.8-14.6 15.4-5.3 4.6-10.9 8.5-16.9 11.8-6 3.3-12.4 5.8-19.1 7.6-6.8 1.8-13.8 2.7-21.2 2.7-10.9 0-21.4-1.6-31.5-4.7-10.1-3.1-19.6-7.4-28.7-12.8-9.1-5.4-17.5-11.8-25.4-19-7.9-7.2-15.1-15-21.7-23.2-6.3-7.7-12-15.9-17.2-24.5h-17.4v28.2h-15.1v-73.1zm15.2 31.9h22.7c1.8 0 3.4-0.3 4.8-0.8 1.4-0.5 2.5-1.2 3.4-2.2 0.9-0.9 1.5-1.9 2-3.1 0.5-1.1 0.7-2.3 0.7-3.5 0-1.2-0.2-2.4-0.7-3.5-0.5-1.1-1.1-2.1-2-3.1-0.9-0.9-2-1.6-3.4-2.2-1.4-0.5-3-0.8-4.8-0.8h-22.7v19z"/>
					<path class="s0" d="m580.6 67.8v13h-32.8c-3.3 0-6.3 0.7-8.8 2-2.5 1.3-4.6 3.1-6.3 5.3-1.7 2.2-2.9 4.7-3.8 7.6-0.8 2.9-1.3 5.7-1.3 8.7 0 3 0.4 5.8 1.3 8.6 0.8 2.8 2.1 5.3 3.7 7.6 1.6 2.2 3.7 4 6.1 5.4 2.4 1.4 5.3 2 8.6 2h33.2v13h-33.3c-5.8-0.2-10.9-1.4-15.2-3.5-4.4-2.1-8.1-4.9-11.1-8.3-3-3.4-5.3-7.3-6.8-11.5-1.5-4.3-2.3-8.7-2.3-13.2 0-4.5 0.8-8.8 2.3-13.2 1.5-4.3 3.8-8.2 6.8-11.6 3-3.4 6.7-6.2 11.1-8.3 4.4-2.1 9.5-3.3 15.2-3.5h33.3zm-38.5 43v-13h30.5v13z"/>
					<path class="s0" d="m637.4 103.9c4.9 6.7 10 13.2 15.1 19.6 5.1 6.4 10.4 12.5 16 18.2q8.3 8.5 17.4 15.9c6.1 4.8 12.5 9 19.4 12.5 6.9 3.5 14.2 6.2 22 8.2 7.8 2 16.2 3 25.3 3 9.1 0 23.5-2.5 33.2-7.6 9.7-5.1 18.4-12.4 26-22l11.3 9.3c-8.9 11.2-19.2 19.8-31 25.9-11.7 6.1-24.8 9.1-39.3 9.1-14.5 0-19.2-1-27.8-3.1-8.6-2.1-16.7-4.9-24.2-8.5-7.5-3.6-14.6-7.9-21.1-13-6.5-5-12.8-10.5-18.6-16.3-5.8-5.8-11.5-12.1-16.9-18.7-5.4-6.6-10.6-13.3-15.7-20.1l-18 24.7h-19.6l28.1-37.4c-5.1-6.8-10.2-13.5-15.2-20.2-5-6.6-10.3-12.9-15.7-18.8-5.4-5.9-11-11.4-16.8-16.4-5.8-5-12-9.3-18.5-13-6.5-3.7-13.5-6.5-21-8.6-7.5-2.1-15.5-3.1-24-3.1-8.5 0-12.6 0.7-18.4 2.2-5.8 1.5-11.2 3.6-16.4 6.4-5.2 2.8-10 6.1-14.6 10-4.6 3.9-8.9 8.3-13 13.1l-11.3-9.3c4.7-5.6 9.8-10.7 15.2-15.2 5.4-4.5 11.2-8.4 17.3-11.6 6.1-3.2 12.6-5.7 19.4-7.5 6.8-1.7 14-2.6 21.5-2.6 7.5 0 18.5 1.1 26.8 3.2 8.3 2.1 16 5.1 23.2 8.9 7.2 3.8 14 8.3 20.3 13.5 6.3 5.2 12.3 10.9 18.1 17 5.7 6.1 11.3 12.5 16.6 19.3 5.3 6.8 10.5 13.7 15.8 20.6l17.8-23.6h17.9l-26.3 36.1z"/>
				</g>
				<g>
					<path class="s1" d="m721.1 69.6l46.2 0.2h4.1c5.3 0 9.3 2.1 12.1 6.3 0.4 0.9 0.7 2.1 0.9 3.7 0 3.1-2.8 9.2-8.4 18.6-3.2 6.4-6.8 11.6-11 15.5-6.5 6.3-15.4 9.5-26.5 9.5l-28.1-0.2c-6.1 11.2-9.6 17.2-10.6 18.1h-19.6l-0.4-0.4 41.2-71.2h0.2zm9.3 18.5l-9.9 17.5h16.6q13.4 0 16.2-4.5c3.3-4.6 5-7.7 5-9.3v-0.2c-0.5-2.3-2.4-3.5-5.8-3.5h-22z"/>
					<path class="s1" d="m798.5 69.4h47.9c9 0 14.2 2.8 15.8 8.4l0.2 1.5q0 4.8-9.3 20.1c-3.6 7.1-7.4 11.7-11.7 13.6l-5.6 1.3v0.2c2.9 0 4.6 1.4 5.2 4.1v0.6c0 1.4-3.5 7.9-10.4 19.6l-1.3 2.2-11.9 0.2h-8.2l-0.4-0.4 9.9-17.7h-30.2l-10.6 17.9h-20.1c0.9-2.1 7.1-13.3 18.8-33.5 13.9-24.9 21.2-37.6 21.8-38.2zm0.2 36h17c9.7 0 15.4-2.2 17-6.7 2.2-3.7 3.2-6.2 3.2-7.3v-1.5c-0.9-1.4-2.6-2.2-5.2-2.2h-22c-6.8 11.3-10.1 17.2-10.1 17.7z"/>
					<path class="s1" d="m895.2 69.8h30c7.4 0 12 2.7 13.6 8l0.2 1.5c0 3.3-2.9 9.7-8.6 19-9.5 17.2-15.3 27.2-17.3 29.8-4.9 5.3-9.5 8.8-13.8 10.4-4 1.9-9.9 2.8-17.7 2.8h-27.2c-6.2 0-10.3-1.9-12.3-5.8-0.4-1.4-0.6-2.5-0.6-3.5 0-3.6 3.4-10.7 10.1-21.4q12.6-22.3 16.2-27c8.3-9.2 17.4-13.8 27.4-13.8zm-26.2 49.2v0.4c0 2.4 1.9 3.7 5.6 3.7h12.3c7.3 0 13.2-4.9 17.5-14.7 5.6-9 8.4-14.5 8.4-16.4v-0.6c0-1.8-1.6-2.9-4.7-3.2h-13.2c-7.1 0-13.3 5.5-18.8 16.4-4.7 7.6-7.1 12.4-7.1 14.5z"/>
				</g>
			</g>
		</g>
	</g>
</svg>