<svg version="1.2" xmlns="http://www.w3.org/2000/svg" viewBox="0 0 84 79" width="84" height="79">
	<title>Процент</title>
	<style>
		.s0 { fill: none;stroke: #00d0e0;stroke-miterlimit:10;stroke-width: 5.4 } 
		.s1 { fill: none;stroke: #00d0e0;stroke-linecap: round;stroke-miterlimit:10;stroke-width: 6.6 } 
		.s2 { fill: none;stroke: #00d0e0;stroke-linecap: round;stroke-miterlimit:10;stroke-width: 7.8 } 
	</style>
	<g>
		<g id="_Слой_1">
			<g>
				<path class="s0" d="m51 5l1.6 1.3c0.8 0.7 1.8 1 2.8 0.9h2c5.4-0.5 10.2 3 11.5 8.2l0.5 2c0.2 1 0.9 1.8 1.7 2.4l1.7 1.1c4.6 2.9 6.4 8.6 4.4 13.6l-0.8 1.9c-0.4 0.9-0.4 2 0 2.9l0.8 1.9c2 5 0.2 10.7-4.4 13.6l-1.7 1.1c-0.9 0.5-1.5 1.4-1.7 2.4l-0.5 2c-1.3 5.2-6.2 8.8-11.5 8.4h-2c-1-0.2-2 0.1-2.8 0.8l-1.6 1.3c-4.1 3.5-10.1 3.5-14.3 0l-1.6-1.3c-0.8-0.7-1.8-1-2.8-0.9h-2c-5.4 0.5-10.2-3-11.5-8.2l-0.5-2c-0.2-1-0.9-1.8-1.7-2.4l-1.7-1.1c-4.6-2.9-6.4-8.6-4.4-13.6l0.8-1.9c0.4-0.9 0.4-2 0-2.9l-0.8-1.9c-2-5-0.2-10.7 4.4-13.6l1.7-1.1c0.9-0.5 1.5-1.4 1.7-2.4l0.5-2c1.3-5.2 6.2-8.8 11.5-8.4h2c1 0.2 2-0.1 2.8-0.8l1.6-1.3c4.1-3.5 10.1-3.5 14.3 0z"/>
				<path fill-rule="evenodd" class="s1" d="m29.5 52.2l29.1-29"/>
				<path fill-rule="evenodd" class="s2" d="m33.1 30.6l4.2-4.1"/>
				<path fill-rule="evenodd" class="s2" d="m52.5 48.8l4.2-4.2"/>
			</g>
		</g>
	</g>
</svg>