<svg version="1.2" xmlns="http://www.w3.org/2000/svg" viewBox="0 0 541 684" width="541" height="684">
	<title>registration</title>
	<style>
		.s0 { opacity: .8;fill: #00030c } 
		.s1 { fill: none;stroke: #ffffff;stroke-miterlimit:10;stroke-width: .5 } 
		.s2 { fill: #24272c } 
	</style>
	<g>
		<g id="_Слой_2">
			<path class="s0" d="m13 654.8v-574.8c0-5.8 2.3-11.3 6.4-15.3l50.4-50.4c4-4 9.4-6.2 15-6.2h285.5c7.8 0 15 4.3 18.7 11.2l9 16.7c3 5.6 8.9 9.1 15.3 9.1h97.1c12.4 0 22.5 10.1 22.5 22.5v538.4c0 4.6-1.8 8.9-5 12.1l-54.2 54.2c-3.4 3.4-8.1 5.4-12.9 5.3l-425.6-0.6c-12.3 0-22.2-10-22.2-22.2z"/>
			<path class="s1" d="m13 654.8v-574.8c0-5.8 2.3-11.3 6.4-15.3l50.4-50.4c4-4 9.4-6.2 15-6.2h285.5c7.8 0 15 4.3 18.7 11.2l9 16.7c3 5.6 8.9 9.1 15.3 9.1h97.1c12.4 0 22.5 10.1 22.5 22.5v538.4c0 4.6-1.8 8.9-5 12.1l-54.2 54.2c-3.4 3.4-8.1 5.4-12.9 5.3l-425.6-0.6c-12.3 0-22.2-10-22.2-22.2z"/>
			<path class="s2" d="m47.4 437.5h448.2c4.9 0 8.9-4 8.9-8.9v-356.6c0-5.2-4.2-9.5-9.5-9.5h-101.7c-3.7 0-7-1.9-9-5l-15-23.6c-1.8-2.8-4.8-4.4-8.1-4.4h-266.9c-1.6 0-3 0.6-4.1 1.7l-49.3 50.9c-1.6 1.6-2.4 3.8-2.4 6v340.5c0 4.9 4 8.9 8.9 8.9z"/>
		</g>
	</g>
</svg>