<svg version="1.2" xmlns="http://www.w3.org/2000/svg" viewBox="0 0 100 90" width="100" height="90">
	<title>Ракета</title>
	<style>
		.s0 { fill: none;stroke: #00d0e0;stroke-miterlimit:10;stroke-width: 4.5 } 
		.s1 { fill: none;stroke: #00d0e0;stroke-linecap: round;stroke-miterlimit:10;stroke-width: 4.5 } 
		.s2 { fill: #00d0e0 } 
	</style>
	<g>
		<g id="_Слой_1">
			<g>
				<path fill-rule="evenodd" class="s0" d="m76.8 25c-2.3 0-4.2-1.9-4.2-4.2 0-2.3 1.9-4.2 4.2-4.2 2.3 0 4.2 1.9 4.2 4.2 0 2.3-1.9 4.2-4.2 4.2z"/>
				<path fill-rule="evenodd" class="s1" d="m14.9 51.4l14.4-11.7"/>
				<path fill-rule="evenodd" class="s1" d="m32.3 74.7l14.4-11.6"/>
				<path fill-rule="evenodd" class="s1" d="m13.9 71.4l21.1-17"/>
				<path class="s2" d="m94.4 6.6c-0.6-0.5-12.7-4.6-18.1-3-4.2 1.2-15.9 10.6-20.9 14.7-5 4.1-0.5 0.2-0.7 0.2-5.1-0.7-15.6-2.1-16.4-1.9-0.8 0.2-11.1 8.2-11.5 8.8-0.4 0.6-0.7 2.4 1.2 3.8 1.5 1.1 6.4 4.8 8.4 6.3 2 1.5 0.8 1 0.7 1.6-0.2 2.4-0.3 8.9 3.2 13.2 3.5 4.4 10 5.6 12.5 6 2.5 0.4 1.2 0.5 1.4 1.2 0.9 2.6 3.3 9.4 3.9 10.2 0.6 0.8 2.1 2.5 4.6 0.3 2.5-2.2 9.5-7.4 9.9-8 0.4-0.6 1.7-12.7 2.4-18 0.7-5.3 0.2-0.5 0.4-0.7 5.6-4.3 14.2-10.9 15.2-11.8 1.5-1.4 4.5-6.5 4.5-13.3 0-6.8 0-9.1-0.6-9.6zm-5.5 16.9c-1.3 1.8-16.2 13.2-18.6 15-2.4 1.8-0.3 0.4-0.4 0.7l-1.8 16.8c0 0.4-0.3 0.8-0.6 1.1l-4.5 4c-0.7 0.6-1.8 0.4-2.1-0.5l-3-7.5c-0.2-0.5-0.7-0.9-1.2-1-2.4-0.4-8.7-1.3-11.8-4.4-4.3-4.2-3.5-10.4-2.9-13 0.6-2.6-0.1-1.6-0.8-2.1l-5.9-4.1c-1-0.7-1-2.2 0-2.9l4.3-3.2c0.5-0.3 1.1-0.5 1.6-0.4l14.9 1.5c0.2 0 0.5 0 0.7-0.2 2.3-1.8 16.9-13.1 19.3-14 2.4-0.9 10.4 0.4 13 0.8 2.6 0.4 0.8 0.5 0.8 0.9 0 2.6 0 10.8-1.1 12.4z"/>
			</g>
		</g>
	</g>
</svg>