<svg version="1.2" xmlns="http://www.w3.org/2000/svg" viewBox="0 0 653 512" width="653" height="512">
	<title>Темная плашка</title>
	<style>
		.s0 { fill: #000a13 } 
	</style>
	<g>
		<g id="_Слой_2">
			<path class="s0" d="m13 371.2v-269.7c0-8.3 3.3-16.3 9.2-22.3l59.6-59.6c5-5 11.7-7.8 18.7-7.8h341.7c6.3 0 12.2 3.1 15.8 8.2l19.1 27.2c4 5.7 10.5 9.1 17.5 9.1h115.2c16.1 0 29.2 13.1 29.2 29.2v325.3c0 6-2.4 11.8-6.7 16.1l-67.2 67.2c-4.5 4.5-10.7 7.1-17.1 7.1h-503.6c-17.3 0-31.4-14.1-31.4-31.4v-98.7z"/>
		</g>
	</g>
</svg>